<?xml version="1.0" encoding="utf-8"?>
<!-- Uploaded to: SVG Repo, www.svgrepo.com, Generator: SVG Repo Mixer Tools -->
<svg width="800px" height="800px" viewBox="-3.84 0 50.114 50.114" xmlns="http://www.w3.org/2000/svg">
  <g id="Group_1635" data-name="Group 1635" transform="translate(3151.083 -2050.809)">
    <path id="Path_3474" data-name="Path 3474" d="M-3138.094,2063.21c5.073-1.715,7.323-8.615,7.323-8.615s-5.975-4.121-11.048-2.407-7.322,8.614-7.322,8.614,5.974,4.122,11.047,2.408" fill="#ffffff" fill-rule="evenodd"/>
    <path id="Path_3475" data-name="Path 3475" d="M-3148.944,2064.981a.959.959,0,0,1-.945-.789,70.393,70.393,0,0,1-1.194-12.421.96.96,0,0,1,.96-.96.958.958,0,0,1,.96.96,68.37,68.37,0,0,0,1.164,12.08.96.96,0,0,1-.773,1.115.932.932,0,0,1-.172.015" fill="#6f0911" fill-rule="evenodd"/>
    <path id="Path_3476" data-name="Path 3476" d="M-3135.022,2066.282c5.073-1.714,7.323-8.615,7.323-8.615s-5.975-4.121-11.047-2.407-7.323,8.614-7.323,8.614,5.974,4.122,11.047,2.408" fill="#5db67d" fill-rule="evenodd"/>
    <path id="Path_3477" data-name="Path 3477" d="M-3147.965,2060.4c1.595.935,5.915,3.128,9.563,1.9h0c3.661-1.237,5.758-5.6,6.454-7.308-1.594-.935-5.914-3.131-9.562-1.9S-3147.267,2058.693-3147.965,2060.4Zm9.871,2.806h0Zm-2.67,1.378c-4.517,0-8.708-2.848-8.922-2.995a.959.959,0,0,1-.367-1.088c.1-.3,2.462-7.38,7.927-9.227s11.64,2.347,11.9,2.527a.961.961,0,0,1,.368,1.088c-.1.3-2.463,7.379-7.929,9.227h0a9.291,9.291,0,0,1-2.977.468" fill="#6f0911" fill-rule="evenodd"/>
    <path id="Path_3478" data-name="Path 3478" d="M-3126.622,2061.118a44.205,44.205,0,0,1,4.487,11.18,44.222,44.222,0,0,1,10.412,6.056,44.207,44.207,0,0,1-9.246,7.722,44.179,44.179,0,0,1-2.542,11.775,44.209,44.209,0,0,1-10.2-6.408,44.2,44.2,0,0,1-11.984,1.221,44.228,44.228,0,0,1,2.942-11.682,44.2,44.2,0,0,1-4.865-11.02,44.19,44.19,0,0,1,12.019-.812,44.186,44.186,0,0,1,8.978-8.032" fill="#ffffff" fill-rule="evenodd"/>
    <path id="Path_3479" data-name="Path 3479" d="M-3123.55,2064.19a44.205,44.205,0,0,1,4.487,11.18,44.233,44.233,0,0,1,10.412,6.056,44.207,44.207,0,0,1-9.246,7.722,44.225,44.225,0,0,1-2.542,11.775,44.2,44.2,0,0,1-10.2-6.408,44.191,44.191,0,0,1-11.984,1.221,44.188,44.188,0,0,1,2.941-11.682,44.25,44.25,0,0,1-4.864-11.02,44.232,44.232,0,0,1,12.019-.813,44.153,44.153,0,0,1,8.978-8.031" fill="#f5bd3c" fill-rule="evenodd"/>
    <path id="Path_3480" data-name="Path 3480" d="M-3133.712,2090.483a.954.954,0,0,1,.6.214,45.962,45.962,0,0,0,9.059,5.875,45.924,45.924,0,0,0,2.126-10.587.955.955,0,0,1,.431-.714,45.873,45.873,0,0,0,8.387-6.8,45.863,45.863,0,0,0-9.41-5.292.963.963,0,0,1-.546-.632,45.87,45.87,0,0,0-3.876-10.077,45.859,45.859,0,0,0-7.942,7.315.969.969,0,0,1-.768.324,45.826,45.826,0,0,0-10.783.571,45.87,45.87,0,0,0,4.5,9.814.958.958,0,0,1,.071.831,45.814,45.814,0,0,0-2.788,10.431,45.881,45.881,0,0,0,10.725-1.249A.923.923,0,0,1-3133.712,2090.483Zm10.2,8.328a.942.942,0,0,1-.362-.072,44.249,44.249,0,0,1-10.081-6.26,44.359,44.359,0,0,1-11.812,1.142.955.955,0,0,1-.656-.329.962.962,0,0,1-.232-.7,44.306,44.306,0,0,1,2.839-11.522,44.323,44.323,0,0,1-4.735-10.881.959.959,0,0,1,.7-1.162,44.286,44.286,0,0,1,11.834-.86,44.28,44.28,0,0,1,8.885-7.866.959.959,0,0,1,1.321.308,44.355,44.355,0,0,1,4.477,10.99,44.334,44.334,0,0,1,10.227,6.019.961.961,0,0,1,.114,1.353,44.292,44.292,0,0,1-9.07,7.653,44.187,44.187,0,0,1-2.564,11.586.958.958,0,0,1-.888.6" fill="#6f0911" fill-rule="evenodd"/>
    <path id="Path_3481" data-name="Path 3481" d="M-3127.421,2080.643a.959.959,0,0,1-.956-.879.962.962,0,0,1,.876-1.038l.911-.076a.957.957,0,0,1,1.037.875.959.959,0,0,1-.875,1.038l-.911.077c-.027,0-.055,0-.082,0" fill="#6f0911" fill-rule="evenodd"/>
    <path id="Path_3482" data-name="Path 3482" d="M-3129.221,2085.055a.962.962,0,0,1-.887-.589l-.354-.843a.959.959,0,0,1,.513-1.257.959.959,0,0,1,1.257.513l.355.843a.961.961,0,0,1-.513,1.257.96.96,0,0,1-.371.076" fill="#6f0911" fill-rule="evenodd"/>
    <path id="Path_3483" data-name="Path 3483" d="M-3134.328,2083.86a.96.96,0,0,1-.727-.331.96.96,0,0,1,.1-1.355l.693-.6a.958.958,0,0,1,1.353.1.959.959,0,0,1-.1,1.354l-.692.6a.958.958,0,0,1-.627.233" fill="#6f0911" fill-rule="evenodd"/>
    <path id="Path_3484" data-name="Path 3484" d="M-3133.989,2079.108a.961.961,0,0,1-.5-.138l-.783-.474a.958.958,0,0,1-.325-1.317.959.959,0,0,1,1.318-.326l.783.473a.961.961,0,0,1,.325,1.318.958.958,0,0,1-.822.464" fill="#6f0911" fill-rule="evenodd"/>
    <path id="Path_3485" data-name="Path 3485" d="M-3130.146,2077.49a.983.983,0,0,1-.219-.025.961.961,0,0,1-.717-1.154l.208-.89a.957.957,0,0,1,1.153-.717.96.96,0,0,1,.717,1.153l-.207.891a.962.962,0,0,1-.935.742" fill="#6f0911" fill-rule="evenodd"/>
    <path id="Path_3486" data-name="Path 3486" d="M-3147.619,2070.922a.96.96,0,0,1-.922-.7c-.009-.031-.227-.791-.534-2.107a.96.96,0,0,1,.714-1.154.963.963,0,0,1,1.155.717c.3,1.263.507,2.008.511,2.015a.96.96,0,0,1-.659,1.187.942.942,0,0,1-.265.038" fill="#6f0911" fill-rule="evenodd"/>
  </g>
</svg>